<svg xmlns="http://www.w3.org/2000/svg" width="24" height="24" class="j5d"><path fill="currentColor" d="M22 1a7 7 0 0 0-7 7v1a1 1 0 0 0 1 1 7 7 0 0 0 7-7V2a1 1 0 0 0-1-1Zm-1.001 2.1a5.002 5.002 0 0 1-3.998 4.8 5.002 5.002 0 0 1 3.998-4.8Z"></path><path fill="currentColor" d="M2 1a1 1 0 0 0-1 1v1a7 7 0 0 0 7 7 1 1 0 0 0 0-2 5 5 0 0 1-5-5h1a7 7 0 0 1 7 7v2H6a1 1 0 0 0-.976 1.217l1.652 7.434A3 3 0 0 0 9.604 23h4.792a3 3 0 0 0 2.928-2.35l1.652-7.433A1 1 0 0 0 18 12h-2a1 1 0 1 0 0 2h.753l-1.381 6.217a1 1 0 0 1-.976.783H9.604a1 1 0 0 1-.976-.783L7.247 14H12a1 1 0 0 0 1-1v-3a9 9 0 0 0-9-9H2Z"></path></svg>