<svg xmlns="http://www.w3.org/2000/svg" width="24" height="24" class="j5d"><path fill="currentColor" d="M8.707 1.293a1 1 0 0 0-1.154-.187c-.457.228-.925.444-1.394.66-1.04.48-2.087.963-3.026 1.59-.228.152-.533.38-.84.687C1.683 4.652 1 5.64 1 7v15a1 1 0 1 0 2 0V7c0-.641.316-1.152.707-1.543.193-.193.388-.34.535-.437.749-.5 1.588-.884 2.419-1.265.385-.176.77-.352 1.142-.538L10.586 6l-1.43 1.43-1.324-1.985a1 1 0 1 0-1.664 1.11l2 3a1 1 0 0 0 1.54.152L12 7.414l2.293 2.293a1 1 0 0 0 1.54-.152l2-3a1 1 0 0 0-1.665-1.11L14.845 7.43 13.415 6l2.783-2.783c.372.186.756.362 1.142.539.83.38 1.668.764 2.418 1.264.147.097.342.244.535.437.39.391.707.902.707 1.543v15a1 1 0 1 0 2 0V7c0-1.359-.684-2.348-1.293-2.957a5.555 5.555 0 0 0-.84-.688c-.945-.63-1.992-1.112-3.032-1.592-.467-.215-.933-.43-1.388-.657a1 1 0 0 0-1.154.187L12 4.586 8.707 1.293Z"></path><path fill="currentColor" d="M7 11a1 1 0 1 0-2 0v11a1 1 0 0 0 1 1h12a1 1 0 0 0 1-1V11a1 1 0 1 0-2 0v10H7V11Z"></path></svg>