<svg xmlns="http://www.w3.org/2000/svg" width="24" height="24" class="j5d"><path fill="currentColor" d="M11.62 17.08c-.13.05-.23.12-.33.21-.18.19-.29.45-.29.71 0 .13.03.26.08.38.05.13.12.23.21.33.19.18.45.29.71.29.26 0 .52-.11.71-.29.18-.19.29-.45.29-.71 0-.26-.11-.52-.29-.71-.1-.09-.2-.16-.33-.21a1 1 0 0 0-.76 0ZM14 5a1 1 0 0 1 0 2h-4a1 1 0 0 1 0-2h4Z"></path><path fill="currentColor" d="M19 4c0-1.654-1.346-3-3-3H8C6.346 1 5 2.346 5 4v16c0 1.654 1.346 3 3 3h8c1.654 0 3-1.346 3-3V4Zm-2 0v16c0 .551-.449 1-1 1H8c-.551 0-1-.449-1-1V4c0-.551.449-1 1-1h8c.551 0 1 .449 1 1Z"></path></svg>