<svg xmlns="http://www.w3.org/2000/svg" width="24" height="24" class="j5d"><path fill="currentColor" d="M11.78 4.504c.758 1.365 1.22 3.182 1.22 5.58a1 1 0 0 1-1.46.888c-2.302-1.19-4.194-1.148-5.447-.484C4.86 11.142 4 12.528 4 14.584c0 2.028.857 3.595 2.25 4.68C7.667 20.364 9.686 21 12 21s4.333-.635 5.75-1.737c1.393-1.084 2.25-2.65 2.25-4.68 0-2.01-.833-3.11-1.709-3.74C17.355 10.17 16.314 10 16 10a1 1 0 1 1 0-2c.686 0 2.145.275 3.459 1.22C20.833 10.208 22 11.9 22 14.584c0 2.666-1.158 4.807-3.022 6.258C17.138 22.273 14.657 23 12 23s-5.137-.726-6.978-2.159C3.158 19.392 2 17.25 2 14.585c0-2.64 1.14-4.795 3.157-5.865 1.614-.855 3.626-.929 5.762-.19-.146-1.329-.478-2.319-.887-3.058-.551-.993-1.27-1.585-1.983-1.945a5.42 5.42 0 0 0-2.074-.548c.013.138.033.285.065.436.143.668.489 1.318 1.331 1.656a1 1 0 0 1-.742 1.857c-1.658-.663-2.27-2.012-2.502-3.094a5.898 5.898 0 0 1-.096-1.808c.049-.465.207-.964 1.223-1.015.226-.012.541-.015.916.012.746.055 1.756.2 2.781.72 1.038.524 2.068 1.386 2.83 2.76Z"></path></svg>